<?xml version="1.0" encoding="UTF-8"?>
<!DOCTYPE svg PUBLIC "-//W3C//DTD SVG 1.1//EN" "http://www.w3.org/Graphics/SVG/1.1/DTD/svg11.dtd">
<svg xmlns="http://www.w3.org/2000/svg" version="1.1" width="1000px" height="1000px" style="shape-rendering:geometricPrecision; text-rendering:geometricPrecision; image-rendering:optimizeQuality; fill-rule:evenodd; clip-rule:evenodd" xmlns:xlink="http://www.w3.org/1999/xlink">
<g><path style="opacity:0.999" fill="#f4eadc" d="M 104.5,-0.5 C 367.833,-0.5 631.167,-0.5 894.5,-0.5C 934.973,5.98864 965.473,26.9886 986,62.5C 992.849,75.8749 997.349,89.8749 999.5,104.5C 999.5,367.833 999.5,631.167 999.5,894.5C 988.17,953.163 953.17,988.163 894.5,999.5C 631.167,999.5 367.833,999.5 104.5,999.5C 46.2866,988.287 11.2866,953.62 -0.5,895.5C -0.5,631.5 -0.5,367.5 -0.5,103.5C 6.93613,60.8907 29.9361,29.724 68.5,10C 80.2314,5.14018 92.2314,1.64018 104.5,-0.5 Z"/></g>
<g><path style="opacity:1" fill="#5d8163" d="M 230.5,303.5 C 229.51,309.31 229.177,315.31 229.5,321.5C 236.022,321.823 242.355,321.49 248.5,320.5C 280.483,319.208 312.483,318.374 344.5,318C 371.459,315.706 398.459,314.039 425.5,313C 438.545,312.092 451.545,310.759 464.5,309C 465.5,261.565 465.667,214.065 465,166.5C 467.5,162.667 470.667,159.5 474.5,157C 492.446,147.588 510.446,147.255 528.5,156C 534.521,162.034 538.688,169.201 541,177.5C 548.407,200.126 554.407,223.126 559,246.5C 562.149,317.829 562.149,389.162 559,460.5C 557.149,474.09 554.149,487.423 550,500.5C 548.545,523.592 546.212,546.592 543,569.5C 542.5,576.826 542.334,584.159 542.5,591.5C 620.689,591.317 698.689,587.484 776.5,580C 778.011,560.759 778.677,541.426 778.5,522C 778.251,494.138 777.751,466.304 777,438.5C 778.4,435.098 780.567,432.264 783.5,430C 799.957,420.173 817.29,418.173 835.5,424C 839.44,425.886 842.94,428.386 846,431.5C 858.059,459.067 866.392,487.734 871,517.5C 874.279,588.824 874.279,660.157 871,731.5C 868.225,754.053 862.225,775.72 853,796.5C 847.78,806.054 840.28,813.22 830.5,818C 807.942,828.407 784.276,834.74 759.5,837C 710.216,841.08 660.882,844.414 611.5,847C 575.851,848.818 540.184,849.484 504.5,849C 469.367,845.365 450.7,825.865 448.5,790.5C 454.056,714.274 461.723,638.274 471.5,562.5C 460.122,563.578 448.789,565.078 437.5,567C 391.167,570 344.833,573 298.5,576C 260.851,577.884 223.185,578.551 185.5,578C 161.595,573.429 145.761,559.596 138,536.5C 136.495,526.212 136.162,515.878 137,505.5C 143.069,420.068 152.736,335.068 166,250.5C 169.558,238.051 175.225,226.718 183,216.5C 197.248,200.806 213.748,197.64 232.5,207C 236.985,212.451 238.652,218.785 237.5,226C 235.876,251.932 233.543,277.766 230.5,303.5 Z"/></g>
<g><path style="opacity:1" fill="#a1b099" d="M 230.5,303.5 C 230.5,309.167 230.5,314.833 230.5,320.5C 236.5,320.5 242.5,320.5 248.5,320.5C 242.355,321.49 236.022,321.823 229.5,321.5C 229.177,315.31 229.51,309.31 230.5,303.5 Z"/></g>
<g><path style="opacity:1" fill="#f4eadc" d="M 469.5,354.5 C 470.158,355.793 470.492,357.293 470.5,359C 468.607,378.828 466.773,398.661 465,418.5C 461.368,440.598 457.368,462.598 453,484.5C 448.143,488.512 442.643,491.346 436.5,493C 427.633,495.387 418.633,497.053 409.5,498C 354.251,502.602 298.918,505.269 243.5,506C 228.411,500.904 219.911,490.404 218,474.5C 218.413,444.148 219.58,413.815 221.5,383.5C 294.569,380.373 367.235,373.207 439.5,362C 449.863,360.433 459.863,357.933 469.5,354.5 Z"/></g>
<g><path style="opacity:1" fill="#f4eadc" d="M 781.5,626.5 C 782.461,628.265 782.795,630.265 782.5,632.5C 780.698,652.825 778.864,673.158 777,693.5C 773.256,711.043 770.256,728.71 768,746.5C 767,749.5 766,752.5 765,755.5C 759.194,759.996 752.694,763.163 745.5,765C 734.568,767.075 723.568,768.742 712.5,770C 660.23,773.931 607.897,776.264 555.5,777C 540.978,771.494 532.478,760.994 530,745.5C 530.628,715.246 532.128,685.079 534.5,655C 605.534,651.563 676.201,644.563 746.5,634C 758.199,631.659 769.866,629.159 781.5,626.5 Z"/></g>
<g><path style="opacity:1" fill="#94a78f" d="M 781.5,626.5 C 781.56,625.957 781.893,625.624 782.5,625.5C 783.797,627.973 783.797,630.307 782.5,632.5C 782.795,630.265 782.461,628.265 781.5,626.5 Z"/></g>
</svg>
